HIERARCHY
ROOT Hips
{
	OFFSET 0.00 0.00 0.00
	CHANNELS 6 Xposition Yposition Zposition Xrotation Yrotation Zrotation
	JOINT Spine
	{
		OFFSET 0.00000 1.70439 2.55658
		CHANNELS 3 Xrotation Yrotation Zrotation
		JOINT Spine1
		{
			OFFSET 0.00000 0.59193 3.35699
			CHANNELS 3 Xrotation Yrotation Zrotation
			JOINT Spine2
			{
				OFFSET 0.00000 0.29710 3.39581
				CHANNELS 3 Xrotation Yrotation Zrotation
				JOINT Spine3
				{
					OFFSET 0.00000 0.00000 3.40878
					CHANNELS 3 Xrotation Yrotation Zrotation
					JOINT Neck
					{
						OFFSET 0.00000 -1.27828 8.94804
						CHANNELS 3 Xrotation Yrotation Zrotation
						JOINT Head
						{
							OFFSET 0.00000 -0.81390 4.61586
							CHANNELS 3 Xrotation Yrotation Zrotation
							End Site
							{
								OFFSET 0.00000 0.00001 5.51796
							}
						}
					}
					JOINT RightShoulder
					{
						OFFSET -1.18875 -1.98124 6.41925
						CHANNELS 3 Xrotation Yrotation Zrotation
						JOINT RightArm
						{
							OFFSET -5.90412 0.00000 0.00000
							CHANNELS 3 Xrotation Yrotation Zrotation
							JOINT RightForeArm
							{
								OFFSET -11.94674 0.00000 0.00000
								CHANNELS 3 Xrotation Yrotation Zrotation
								JOINT RightHand
								{
									OFFSET -10.17720 0.00000 0.00000
									CHANNELS 3 Xrotation Yrotation Zrotation
									JOINT RightHandEnd
									{
										OFFSET -2.84518 0.00000 0.00000
										CHANNELS 3 Xrotation Yrotation Zrotation
										End Site
										{
											OFFSET -2.84518 0.00000 0.00000
										}
									}
									JOINT RightHandThumb1
									{
										OFFSET -1.13807 -1.89679 -0.75871
										CHANNELS 3 Yrotation Xrotation Zrotation
										End Site
										{
											OFFSET -2.74823 -0.73639 0.00000
										}
									}
								}
							}
						}
					}
					JOINT LeftShoulder
					{
						OFFSET 1.18875 -1.98124 6.41925
						CHANNELS 3 Xrotation Yrotation Zrotation
						JOINT LeftArm
						{
							OFFSET 5.90412 0.00000 0.00000
							CHANNELS 3 Xrotation Yrotation Zrotation
							JOINT LeftForeArm
							{
								OFFSET 11.94674 0.00000 0.00000
								CHANNELS 3 Xrotation Yrotation Zrotation
								JOINT LeftHand
								{
									OFFSET 10.17720 0.00000 0.00000
									CHANNELS 3 Xrotation Yrotation Zrotation
									JOINT LeftHandEnd
									{
										OFFSET 2.84518 0.00000 0.00000
										CHANNELS 3 Xrotation Yrotation Zrotation
										End Site
										{
											OFFSET 2.84518 0.00000 0.00000
										}
									}
									JOINT LeftHandThumb1
									{
										OFFSET 1.13807 -1.89679 -0.75871
										CHANNELS 3 Yrotation Xrotation Zrotation
										End Site
										{
											OFFSET 2.74823 -0.73639 0.00000
										}
									}
								}
							}
						}
					}
				}
			}
		}
	}
	JOINT RightUpLeg
	{
		OFFSET -3.52662 0.00000 -1.03025
		CHANNELS 3 Xrotation Yrotation Zrotation
		JOINT RightLeg
		{
			OFFSET 0.00001 0.00000 -17.80159
			CHANNELS 3 Xrotation Yrotation Zrotation
			JOINT RightFoot
			{
				OFFSET 0.00001 0.00000 -16.85992
				CHANNELS 3 Xrotation Yrotation Zrotation
				JOINT RightToeBase
				{
					OFFSET 0.00000 -5.42953 -1.97619
					CHANNELS 3 Xrotation Yrotation Zrotation
					End Site
					{
						OFFSET 0.00000 -2.85300 -0.00000
					}
				}
			}
		}
	}
	JOINT LeftUpLeg
	{
		OFFSET 3.52662 0.00000 -1.03025
		CHANNELS 3 Xrotation Yrotation Zrotation
		JOINT LeftLeg
		{
			OFFSET 0.00001 0.00000 -17.80159
			CHANNELS 3 Xrotation Yrotation Zrotation
			JOINT LeftFoot
			{
				OFFSET 0.00001 0.00000 -16.85992
				CHANNELS 3 Xrotation Yrotation Zrotation
				JOINT LeftToeBase
				{
					OFFSET 0.00000 -5.42953 -1.97619
					CHANNELS 3 Xrotation Yrotation Zrotation
					End Site
					{
						OFFSET 0.00000 -2.85300 -0.00000
					}
				}
			}
		}
	}
}
MOTION
Frames: 17
Frame Time: 0.008342
 0.3369 -45.5994 37.6073 1.2529 1.9080 178.4244 2.0315 0.5580 -0.4349 1.2949 -0.2342 -0.1038 -1.5774 -1.9951 0.1421 -1.0398 -0.0469 0.3519 -0.1699 -0.0635 0.2875 -6.1171 2.4006 1.2371 -0.7961 12.4097 3.0575 -0.4300 4.7834 -0.8626 0.0000 0.0000 9.4188 -0.9632 20.2756 -5.4083 -0.0000 -0.0000 -0.0000 -0.0000 -0.0000 0.0000 -5.4570 -9.6184 -5.2723 1.2120 0.5258 1.9932 -0.0000 -0.0000 -13.1753 -3.3328 -19.3526 7.2657 0.0000 -0.0000 -0.0000 -0.0000 0.0000 0.0000 4.1502 13.3923 -36.8094 10.5347 0.0000 0.0000 -6.6238 -15.6242 3.0572 2.0437 0.0000 0.0000 4.6980 -5.2083 14.9964 10.3245 0.0000 0.0000 -10.6588 9.8516 7.1659 -2.7691 0.0000 -0.0000
 0.3494 -45.6216 37.6095 1.2584 1.9242 178.4058 2.0433 0.5822 -0.4497 1.3001 -0.2235 -0.1047 -1.5771 -1.9981 0.1186 -1.0429 -0.0596 0.3528 -0.2032 -0.0598 0.2959 -6.1404 2.4027 1.2678 -0.8163 12.4852 3.0712 -0.4240 4.7383 -0.8638 0.0000 0.0000 9.3866 -0.8622 20.2971 -5.5341 -0.0000 0.0000 -0.0000 0.0000 -0.0000 0.0000 -5.4972 -9.7258 -5.2575 1.3811 0.6073 2.0727 -0.0000 -0.0000 -13.0026 -3.3324 -19.1931 7.3403 0.0000 -0.0000 -0.0000 0.0000 -0.0000 -0.0000 4.0030 13.4133 -36.4564 10.7370 0.0000 0.0000 -6.8032 -15.4772 2.6977 2.0524 0.0000 0.0000 4.6910 -5.2060 15.0515 10.2793 0.0000 0.0000 -10.5950 9.8526 7.1394 -2.7490 0.0000 -0.0000
 0.3664 -45.6509 37.6122 1.2610 1.9471 178.4012 2.0525 0.6129 -0.4683 1.3072 -0.2036 -0.1055 -1.5728 -2.0016 0.0778 -1.0458 -0.0747 0.3521 -0.2462 -0.0612 0.3002 -6.1745 2.4064 1.3042 -0.8409 12.5723 3.0795 -0.4184 4.6841 -0.8680 0.0000 0.0000 9.3467 -0.7341 20.3206 -5.6907 0.0000 0.0000 0.0000 0.0000 -0.0000 -0.0000 -5.5375 -9.8648 -5.2395 1.5775 0.7115 2.1731 -0.0000 -0.0000 -12.7990 -3.3239 -18.9996 7.4316 0.0000 0.0000 0.0000 -0.0000 -0.0000 0.0000 3.8224 13.4362 -36.0303 10.9817 0.0000 0.0000 -7.0241 -15.2997 2.2530 2.0612 0.0000 0.0000 4.6699 -5.2056 15.1110 10.2276 0.0000 0.0000 -10.5131 9.8559 7.0980 -2.7221 0.0000 -0.0000
 0.3877 -45.6869 37.6150 1.2620 1.9771 178.4183 2.0601 0.6503 -0.4904 1.3160 -0.1754 -0.1068 -1.5636 -2.0033 0.0183 -1.0486 -0.0914 0.3491 -0.2973 -0.0693 0.2962 -6.2189 2.4104 1.3449 -0.8693 12.6663 3.0763 -0.4116 4.6227 -0.8736 0.0000 0.0000 9.2985 -0.5857 20.3451 -5.8739 0.0000 -0.0000 0.0000 -0.0000 0.0000 -0.0000 -5.5726 -10.0326 -5.2190 1.7941 0.8354 2.2889 -0.0000 -0.0000 -12.5719 -3.3060 -18.7770 7.5360 0.0000 -0.0000 -0.0000 -0.0000 -0.0000 -0.0000 3.6185 13.4591 -35.5558 11.2583 0.0000 0.0000 -7.2772 -15.0985 1.7426 2.0699 0.0000 0.0000 4.6339 -5.2078 15.1680 10.1718 0.0000 0.0000 -10.4140 9.8625 7.0402 -2.6884 0.0000 -0.0000
 0.4137 -45.7280 37.6180 1.2812 2.0095 178.4634 2.0854 0.6915 -0.5148 1.3259 -0.1396 -0.1066 -1.5488 -2.0038 -0.0647 -1.0522 -0.1080 0.3450 -0.3534 -0.0853 0.2809 -6.2686 2.4128 1.3859 -0.9001 12.7675 3.0597 -0.4039 4.5503 -0.8862 0.0000 0.0000 9.2460 -0.4191 20.3677 -6.0797 0.0000 0.0000 0.0000 0.0000 0.0000 0.0000 -5.5950 -10.2305 -5.2002 2.0166 0.9816 2.4175 -0.0000 -0.0000 -12.3342 -3.2764 -18.5318 7.6491 0.0000 -0.0000 -0.0000 0.0000 0.0000 0.0000 3.4279 13.4736 -35.0675 11.5448 0.0000 0.0000 -7.5460 -14.8842 1.1961 2.0776 0.0000 0.0000 4.6061 -5.2182 15.2254 10.1105 0.0000 0.0000 -10.2985 9.8761 6.9564 -2.6494 0.0000 -0.0000
 0.4437 -45.7737 37.6209 1.3058 2.0452 178.5434 2.1148 0.7374 -0.5402 1.3382 -0.1037 -0.1105 -1.5294 -1.9962 -0.1632 -1.0552 -0.1238 0.3366 -0.4122 -0.1103 0.2516 -6.3242 2.4131 1.4235 -0.9316 12.8649 3.0218 -0.3953 4.4758 -0.9015 0.0000 0.0000 9.1883 -0.2407 20.3868 -6.3015 0.0000 0.0000 0.0000 0.0000 -0.0000 0.0000 -5.6018 -10.4470 -5.1820 2.2385 1.1396 2.5472 -0.0000 -0.0000 -12.0956 -3.2402 -18.2730 7.7637 0.0000 -0.0000 -0.0000 -0.0000 -0.0000 0.0000 3.2476 13.4805 -34.5990 11.8299 0.0000 0.0000 -7.8184 -14.6657 0.6434 2.0852 0.0000 0.0000 4.5697 -5.2362 15.2715 10.0501 0.0000 0.0000 -10.1707 9.8965 6.8515 -2.6060 0.0000 -0.0000
 0.4772 -45.8223 37.6238 1.3423 2.0790 178.6628 2.1545 0.7789 -0.5667 1.3500 -0.0584 -0.1120 -1.5033 -1.9878 -0.2845 -1.0581 -0.1370 0.3267 -0.4700 -0.1435 0.2066 -6.3810 2.4102 1.4534 -0.9639 12.9555 2.9617 -0.3838 4.3993 -0.9237 0.0000 0.0000 9.1288 -0.0597 20.4021 -6.5292 -0.0000 0.0000 -0.0000 -0.0000 0.0000 0.0000 -5.5875 -10.6769 -5.1663 2.4477 1.3078 2.6713 -0.0000 -0.0000 -11.8699 -3.1970 -18.0131 7.8753 -0.0000 0.0000 0.0000 0.0000 -0.0000 0.0000 3.0998 13.4724 -34.1853 12.0919 0.0000 0.0000 -8.0784 -14.4537 0.1153 2.0923 0.0000 0.0000 4.5318 -5.2679 15.3052 9.9943 0.0000 0.0000 -10.0343 9.9258 6.7213 -2.5602 0.0000 -0.0000
 0.5134 -45.8721 37.6264 1.3945 2.1100 178.8238 2.2068 0.8178 -0.5930 1.3650 -0.0119 -0.1152 -1.4745 -1.9764 -0.4181 -1.0609 -0.1452 0.3109 -0.5223 -0.1834 0.1466 -6.4355 2.4023 1.4699 -0.9958 13.0338 2.8767 -0.3679 4.3259 -0.9513 0.0000 0.0000 9.0689 0.1169 20.4102 -6.7564 0.0000 0.0000 0.0000 0.0000 -0.0000 0.0000 -5.5491 -10.9103 -5.1535 2.6384 1.4789 2.7805 -0.0000 -0.0000 -11.6677 -3.1484 -17.7619 7.9788 0.0000 0.0000 -0.0000 0.0000 0.0000 -0.0000 3.0015 13.4495 -33.8594 12.3149 0.0000 0.0000 -8.3133 -14.2579 -0.3574 2.0995 0.0000 0.0000 4.4977 -5.3124 15.3202 9.9446 0.0000 0.0000 -9.8926 9.9644 6.5696 -2.5137 0.0000 -0.0000
 0.5513 -45.9222 37.6290 1.4478 2.1376 179.0267 2.2564 0.8497 -0.6192 1.3802 0.0360 -0.1176 -1.4403 -1.9607 -0.5645 -1.0631 -0.1486 0.2931 -0.5659 -0.2279 0.0702 -6.4863 2.3889 1.4705 -1.0295 13.0944 2.7669 -0.3461 4.2593 -0.9872 0.0000 0.0000 9.0123 0.2842 20.4154 -6.9757 0.0000 0.0000 0.0000 0.0000 -0.0000 -0.0000 -5.4869 -11.1366 -5.1453 2.8050 1.6472 2.8679 -0.0000 -0.0000 -11.4986 -3.0943 -17.5327 8.0715 -0.0000 0.0000 0.0000 -0.0000 0.0000 0.0000 2.9448 13.4129 -33.6456 12.4892 0.0000 0.0000 -8.5139 -14.0852 -0.7501 2.1072 0.0000 0.0000 4.4507 -5.3694 15.3103 9.9073 0.0000 0.0000 -9.7501 10.0113 6.4020 -2.4684 0.0000 -0.0000
 0.5906 -45.9708 37.6314 1.5115 2.1525 179.2662 2.3123 0.8661 -0.6401 1.3956 0.0808 -0.1235 -1.4031 -1.9383 -0.7149 -1.0649 -0.1476 0.2726 -0.5971 -0.2751 -0.0215 -6.5284 2.3687 1.4519 -1.0643 13.1342 2.6323 -0.3176 4.2029 -1.0306 0.0000 0.0000 8.9609 0.4376 20.4161 -7.1820 -0.0000 0.0000 -0.0000 0.0000 -0.0000 -0.0000 -5.4013 -11.3485 -5.1422 2.9468 1.8075 2.9254 -0.0000 -0.0000 -11.3676 -3.0402 -17.3315 8.1488 -0.0000 0.0000 -0.0000 0.0000 0.0000 0.0000 2.9487 13.3506 -33.5528 12.5976 0.0000 0.0000 -8.6698 -13.9406 -1.0515 2.1158 0.0000 0.0000 4.4041 -5.4484 15.2873 9.8834 0.0000 0.0000 -9.6104 10.0683 6.2121 -2.4256 0.0000 -0.0000
 0.6297 -46.0167 37.6339 1.5871 2.1614 179.5397 2.3767 0.8735 -0.6618 1.4101 0.1226 -0.1265 -1.3657 -1.9155 -0.8679 -1.0663 -0.1393 0.2499 -0.6122 -0.3212 -0.1253 -6.5578 2.3407 1.4125 -1.1007 13.1563 2.4774 -0.2817 4.1552 -1.0816 0.0000 0.0000 8.9155 0.5708 20.4141 -7.3689 0.0000 -0.0000 0.0000 -0.0000 -0.0000 -0.0000 -5.2934 -11.5392 -5.1452 3.0632 1.9582 2.9518 -0.0000 -0.0000 -11.2788 -2.9848 -17.1632 8.2106 0.0000 -0.0000 -0.0000 -0.0000 0.0000 -0.0000 3.0180 13.2740 -33.6008 12.6379 0.0000 0.0000 -8.7770 -13.8281 -1.2408 2.1260 0.0000 0.0000 4.3619 -5.5379 15.2386 9.8705 0.0000 0.0000 -9.4740 10.1322 6.0145 -2.3870 0.0000 -0.0000
 0.6688 -46.0591 37.6366 1.6701 2.1550 179.8375 2.4445 0.8630 -0.6792 1.4234 0.1580 -0.1302 -1.3295 -1.8899 -1.0156 -1.0669 -0.1256 0.2260 -0.6100 -0.3644 -0.2396 -6.5725 2.3052 1.3527 -1.1406 13.1586 2.3047 -0.2378 4.1195 -1.1392 0.0000 0.0000 8.8776 0.6828 20.4098 -7.5338 0.0000 0.0000 0.0000 0.0000 -0.0000 0.0000 -5.1679 -11.7036 -5.1545 3.1579 2.0962 2.9433 -0.0000 -0.0000 -11.2301 -2.9304 -17.0283 8.2545 0.0000 -0.0000 -0.0000 0.0000 -0.0000 0.0000 3.1471 13.1706 -33.7733 12.6044 0.0000 0.0000 -8.8325 -13.7461 -1.3271 2.1379 0.0000 0.0000 4.3206 -5.6482 15.1786 9.8732 0.0000 0.0000 -9.3453 10.2031 5.8049 -2.3528 0.0000 -0.0000
 0.7067 -46.0978 37.6394 1.7550 2.1393 -179.8495 2.5111 0.8372 -0.6934 1.4340 0.1885 -0.1338 -1.2955 -1.8611 -1.1540 -1.0670 -0.1083 0.2035 -0.5899 -0.4011 -0.3606 -6.5700 2.2622 1.2735 -1.1859 13.1438 2.1189 -0.1852 4.0960 -1.2019 0.0000 0.0000 8.8480 0.7750 20.4036 -7.6776 0.0000 -0.0000 -0.0000 -0.0000 -0.0000 -0.0000 -5.0310 -11.8372 -5.1701 3.2369 2.2205 2.9004 -0.0000 -0.0000 -11.2176 -2.8746 -16.9227 8.2834 -0.0000 -0.0000 0.0000 0.0000 -0.0000 0.0000 3.3222 13.0503 -34.0590 12.5066 0.0000 0.0000 -8.8402 -13.6921 -1.3141 2.1514 0.0000 0.0000 4.2766 -5.7689 15.1037 9.8895 0.0000 0.0000 -9.2242 10.2769 5.5961 -2.3227 0.0000 -0.0000
 0.7434 -46.1336 37.6425 1.8260 2.1109 -179.5322 2.5593 0.8002 -0.7023 1.4435 0.2064 -0.1398 -1.2651 -1.8339 -1.2723 -1.0664 -0.0837 0.1774 -0.5516 -0.4327 -0.4848 -6.5539 2.2148 1.1800 -1.2375 13.1117 1.9276 -0.1278 4.0866 -1.2681 0.0000 0.0000 8.8262 0.8472 20.3969 -7.7973 -0.0000 0.0000 0.0000 -0.0000 -0.0000 0.0000 -4.8885 -11.9385 -5.1896 3.3056 2.3307 2.8261 -0.0000 -0.0000 -11.2347 -2.8193 -16.8426 8.2952 0.0000 -0.0000 -0.0000 -0.0000 0.0000 -0.0000 3.5152 12.9099 -34.4238 12.3553 0.0000 0.0000 -8.8065 -13.6593 -1.2256 2.1669 0.0000 0.0000 4.2127 -5.9031 15.0245 9.9236 0.0000 0.0000 -9.1133 10.3516 5.3888 -2.2966 0.0000 -0.0000
 0.7784 -46.1661 37.6459 1.8911 2.0743 -179.2204 2.6006 0.7505 -0.7073 1.4485 0.2195 -0.1438 -1.2403 -1.8072 -1.3771 -1.0649 -0.0572 0.1553 -0.4967 -0.4559 -0.6080 -6.5211 2.1628 1.0744 -1.2969 13.0705 1.7357 -0.0648 4.0871 -1.3355 0.0000 0.0000 8.8118 0.9031 20.3880 -7.8979 0.0000 0.0000 0.0000 -0.0000 -0.0000 0.0000 -4.7467 -12.0086 -5.2142 3.3707 2.4296 2.7263 -0.0000 -0.0000 -11.2742 -2.7635 -16.7770 8.2925 -0.0000 -0.0000 0.0000 -0.0000 -0.0000 0.0000 3.7254 12.7559 -34.8456 12.1611 0.0000 0.0000 -8.7380 -13.6428 -1.0762 2.1838 0.0000 0.0000 4.1417 -6.0431 14.9424 9.9695 0.0000 0.0000 -9.0107 10.4238 5.1912 -2.2735 0.0000 -0.0000
 0.8119 -46.1964 37.6497 1.9412 2.0296 -178.9237 2.6257 0.6935 -0.7077 1.4495 0.2228 -0.1476 -1.2212 -1.7821 -1.4624 -1.0628 -0.0287 0.1351 -0.4279 -0.4704 -0.7280 -6.4733 2.1083 0.9637 -1.3633 13.0224 1.5486 -0.0013 4.0978 -1.4014 0.0000 0.0000 8.8045 0.9446 20.3755 -7.9807 0.0000 -0.0000 -0.0000 0.0000 -0.0000 0.0000 -4.6122 -12.0499 -5.2419 3.4383 2.5205 2.6069 -0.0000 -0.0000 -11.3264 -2.7056 -16.7202 8.2760 0.0000 0.0000 -0.0000 0.0000 -0.0000 0.0000 3.9290 12.5907 -35.2876 11.9406 0.0000 0.0000 -8.6453 -13.6348 -0.8934 2.2015 0.0000 0.0000 4.0541 -6.1872 14.8635 10.0279 0.0000 0.0000 -8.9170 10.4911 5.0069 -2.2521 0.0000 -0.0000
 0.8437 -46.2251 37.6538 1.9738 1.9789 -178.6497 2.6339 0.6318 -0.7043 1.4459 0.2178 -0.1508 -1.2087 -1.7601 -1.5291 -1.0598 0.0003 0.1174 -0.3480 -0.4771 -0.8400 -6.4130 2.0536 0.8520 -1.4372 12.9721 1.3727 0.0620 4.1163 -1.4633 0.0000 0.0000 8.8025 0.9761 20.3587 -8.0502 -0.0000 -0.0000 0.0000 0.0000 -0.0000 0.0000 -4.4901 -12.0655 -5.2708 3.5132 2.6058 2.4764 -0.0000 -0.0000 -11.3848 -2.6431 -16.6640 8.2499 -0.0000 -0.0000 0.0000 0.0000 0.0000 0.0000 4.1112 12.4193 -35.7173 11.7100 0.0000 0.0000 -8.5393 -13.6285 -0.7026 2.2194 0.0000 0.0000 3.9490 -6.3318 14.7917 10.0966 0.0000 0.0000 -8.8313 10.5507 4.8393 -2.2309 0.0000 -0.0000
